<svg width="82" height="32" viewBox="0 0 82 32" fill="none" xmlns="http://www.w3.org/2000/svg">
<g clip-path="url(#clip0_9477_26054)">
<path d="M9.8015 12.5215C8.37107 12.5136 7.21965 11.3491 7.2262 9.91865C7.23406 8.48822 8.39988 7.3368 9.82901 7.34466C11.2594 7.35252 12.4122 8.51704 12.4043 9.94616C12.3964 11.3766 11.2319 12.5293 9.8015 12.5215ZM72.0148 -5.53003e-05C68.2239 -5.53003e-05 64.936 2.14166 63.2881 5.28023C62.8938 4.19168 62.2493 3.20794 61.3756 2.39972C59.8849 1.02037 57.869 0.011734 55.6997 -5.53003e-05C53.5895 -0.0105346 51.58 0.961425 50.1116 2.25824C48.6563 0.945706 46.6561 0.011734 44.5445 -5.53003e-05C42.3752 -0.0118446 40.3514 0.916888 38.8463 2.28051C37.8547 3.17781 37.1487 4.29648 36.7636 5.54352L36.7557 5.74263C35.1982 2.35387 31.7754 -5.53003e-05 27.8011 -5.53003e-05C23.8268 -5.53003e-05 20.535 2.26348 18.9369 5.54876C18.4103 4.48642 17.6505 3.49874 16.6746 2.63681C14.7897 0.974524 12.365 0.011734 10.0255 -5.53003e-05C7.38732 -0.0131545 4.91288 0.981074 3.05542 2.80186C1.18223 4.63968 0.143467 7.12459 0.129058 9.80207C0.115959 12.2084 0.950377 14.6108 2.41749 16.3949C4.00904 18.3283 6.2097 19.4011 8.61602 19.4142C9.51463 19.4182 10.4578 19.2374 11.342 18.889L11.397 18.868C10.8062 19.8216 9.21203 20.0941 8.18899 20.0889C6.62625 20.0797 5.01113 19.6972 3.4497 19.3252C3.12615 19.2479 2.80129 19.1719 2.47643 19.0972L1.88173 18.961L1.8778 19.5727L1.84505 25.6599V26.0464L2.21969 26.1381C5.02422 26.8231 6.64983 27.1113 9.4583 27.1257C15.8651 27.1598 19.7084 23.7789 19.7372 18.0808L19.7516 15.529C21.5357 18.0532 24.4752 19.7037 27.8011 19.7037C31.5003 19.7037 34.7214 17.6642 36.4059 14.6488L36.385 15.1701L36.3693 19.7024H44.4095L44.441 12.19C44.4462 11.2888 44.5484 10.6614 44.7436 10.3247C44.8602 10.1243 44.9872 10.0536 45.2335 10.0562C45.4771 10.0562 46.0496 10.0601 46.0378 12.2005L46.0063 19.7037H54.0453L54.0767 12.2424C54.0872 10.1033 54.6597 10.106 54.9046 10.1086C55.1496 10.1086 55.2779 10.1806 55.3919 10.3824C55.5845 10.7216 55.6788 11.3504 55.6748 12.2516L55.6434 19.7037H63.6824L63.6981 15.3325V15.1321C65.4468 17.879 68.516 19.7037 72.0135 19.7037C77.4549 19.7037 81.8667 15.2932 81.8667 9.85053C81.8667 4.40782 77.4575 -5.53003e-05 72.0148 -5.53003e-05Z" fill="#ED1A3D"/>
<path d="M71.9877 14.7797C74.7097 14.7941 76.9274 12.6 76.9418 9.87801C76.9562 7.156 74.7608 4.93831 72.0401 4.9239C69.3181 4.90949 67.1004 7.1036 67.086 9.82561C67.0716 12.5476 69.2657 14.7653 71.9877 14.7797Z" fill="white"/>
<path d="M70.7461 9.121C70.7383 10.6038 71.9342 11.8142 73.4184 11.8207C74.9025 11.8286 76.1116 10.6326 76.1181 9.14851C76.126 7.66568 74.93 6.45663 73.4459 6.44877C71.963 6.44091 70.754 7.63686 70.7461 9.121Z" fill="black"/>
<path d="M31.2706 27.1232C31.2706 28.01 30.6353 28.889 29.5205 28.889C28.4896 28.8903 27.8242 28.0768 27.8255 27.1193C27.8281 26.1958 28.4936 25.3627 29.5559 25.364C30.5541 25.3627 31.2732 26.1761 31.2719 27.114V27.1232H31.2706ZM29.7891 24.0934C29.2651 24.096 28.4451 24.2781 27.8831 24.9736V24.2885L27.8871 22.1704H26.5234V30.1596L27.8229 30.1622V29.1588C28.1228 29.7195 28.8223 30.1609 29.717 30.1622C31.2811 30.1622 32.6316 29.0396 32.6355 27.1062C32.6381 25.0863 31.1396 24.096 29.7904 24.0934" fill="#ED1A3D"/>
<path d="M35.8764 28.086L34.4905 24.2846L33.0352 24.2833L35.1821 29.781L34.239 31.9974L35.6956 32L38.7176 24.2924L37.2623 24.2898L35.8764 28.086Z" fill="#ED1A3D"/>
<path d="M44.562 25.6022C43.2626 25.0613 42.85 24.9159 42.8552 24.3421C42.8578 23.8234 43.2953 23.4684 43.8088 23.4697C44.566 23.471 44.6996 24.067 44.7598 24.4155L46.2924 24.4207C46.2322 22.7139 44.883 22.1716 43.8573 22.169C42.6116 22.1663 41.3108 22.9667 41.3082 24.4456C41.3069 25.9009 42.6482 26.383 43.2285 26.5925C44.3014 27.0209 44.8515 27.1872 44.8515 27.8422C44.8489 28.3832 44.3917 28.8639 43.801 28.86C43.4656 28.86 42.7688 28.6622 42.7177 27.6235L41.1798 27.6182C41.1667 29.1102 42.0732 30.1608 43.8193 30.1621C45.6296 30.166 46.392 29.0107 46.3933 27.7715C46.3946 26.6803 45.7397 26.117 44.562 25.6036" fill="#ED1A3D"/>
<path d="M47.4141 30.1596L48.9663 30.1583L48.9742 22.1704L47.4219 22.1717L47.4141 30.1596Z" fill="#ED1A3D"/>
<path d="M66.5312 23.5326L68.1962 23.5365L68.1883 30.1594L69.7445 30.1608L69.7523 23.5365L71.4041 23.5404L71.4055 22.1689H66.5326L66.5312 23.5326Z" fill="#ED1A3D"/>
<path d="M79.3387 28.7932L79.3374 22.1689H77.7852V30.1608H81.8655L81.8669 28.7971L79.3387 28.7932Z" fill="#ED1A3D"/>
<path d="M55.3381 27.7964L51.8091 22.1717L50.4193 22.1703L50.4102 30.1595L51.8995 30.1609L51.8733 24.5452L55.4167 30.1582L56.7908 30.1609L56.8013 22.1795L55.3132 22.1782L55.3381 27.7964Z" fill="#ED1A3D"/>
<path d="M72.2031 30.1542L76.5219 30.1608L76.5232 28.7984L73.758 28.7945V26.7799L76.4761 26.7812V25.4189L73.7606 25.4175L73.7632 23.5365L76.5298 23.5391L76.5311 22.1755L72.2123 22.1689L72.2031 30.1542Z" fill="#ED1A3D"/>
<path d="M61.4167 25.9154V27.1638L64.2907 27.1651C64.1767 27.6249 63.9069 28.0414 63.4995 28.3309C63.1026 28.623 62.5799 28.7973 61.9669 28.7959C60.7421 28.7959 59.4715 27.879 59.4728 26.1434C59.4754 24.4667 60.733 23.5314 61.9735 23.5327C62.5668 23.5327 63.0554 23.7279 63.4484 24.0475C63.6829 24.2204 63.8676 24.4418 64.0222 24.6789L65.7735 24.6815C65.2731 23.2786 63.7458 22.1717 62.0088 22.1691C59.761 22.1691 57.9258 23.8405 57.9219 26.1394C57.9219 28.3781 59.6798 30.1583 61.98 30.1596C63.3607 30.1648 65.0164 29.4561 65.7342 27.8541C66.0277 27.2109 66.101 26.4315 66.0787 25.922L61.4167 25.9154Z" fill="#ED1A3D"/>
<path d="M27.7729 14.7798C30.4949 14.7942 32.7126 12.6001 32.727 9.87807C32.7414 7.15606 30.546 4.93837 27.8253 4.92396C25.1033 4.90955 22.8856 7.10366 22.8712 9.82567C22.8568 12.5477 25.0509 14.7654 27.7729 14.7798Z" fill="white"/>
<path d="M26.5313 9.121C26.5234 10.6038 27.7194 11.8142 29.2035 11.8207C30.6877 11.8286 31.8967 10.6326 31.9033 9.14851C31.9111 7.66568 30.7152 6.45663 29.231 6.44877C27.7482 6.44091 26.5391 7.63686 26.5313 9.121Z" fill="black"/>
</g>
<defs>
<clipPath id="clip0_9477_26054">
<rect width="81.7389" height="32" fill="white" transform="translate(0.128906)"/>
</clipPath>
</defs>
</svg>
