<?xml version="1.0" encoding="utf-8"?>
<!-- Generator: Adobe Illustrator 23.0.1, SVG Export Plug-In . SVG Version: 6.00 Build 0)  -->
<svg version="1.1" xmlns="http://www.w3.org/2000/svg" xmlns:xlink="http://www.w3.org/1999/xlink" x="0px" y="0px"
	 viewBox="0 0 170 80" style="enable-background:new 0 0 170 80;" xml:space="preserve">
<style type="text/css">
	.st0{fill:#FFFFFF;fill-opacity:0;}
	.st1{fill-rule:evenodd;clip-rule:evenodd;fill:#454E3F;}
	.st2{fill:#454E3F;}
	.st3{clip-path:url(#SVGID_2_);fill:#A7852E;}
	.st4{clip-path:url(#SVGID_2_);fill:#FFFFFF;}
</style>
<g id="master-artboard">
	<rect id="ee-background_27_" x="0" y="0" class="st0" width="170" height="80"/>
	<g>
		<path class="st1" d="M45.56,34.86h1.71c2.53,0,3.35,1.98,3.35,3.45c0,1.88-1.3,2.99-3.35,2.99c-0.72,0-1.09-0.02-1.71-0.24V34.86
			 M45.56,41.69c1.01,0.12,1.52,0.15,2.12,0.15c3.14,0,4.87-1.28,4.87-3.57c0-1.9-1.54-3.93-5.35-3.93h-5.04v0.41
			c1.16,0,1.57,0.51,1.57,2.19v8.66c0,1.83-0.6,2.15-1.57,2.15v0.41h4.97v-0.41c-1.16,0-1.57-0.48-1.57-2.19V41.69z"/>
		<path class="st1" d="M58.89,42.82h-3.24l1.61-4.88h0.04L58.89,42.82 M60.2,46.72c0.26,0.78-0.12,1.13-0.9,1.13v0.34h4.06v-0.34
			c-1.03,0-1.31-0.32-1.65-1.39l-3.34-9.91h-1.19l-3.18,9.49c-0.36,1.07-0.62,1.65-1.71,1.81v0.34h2.97v-0.34
			c-1.21-0.02-1-0.88-0.62-2.01l0.78-2.31h3.72L60.2,46.72z"/>
		<path class="st2" d="M75.75,38.82c0-1.35,0.36-1.81,1.49-1.81v-0.34h-3.48v0.34c1,0,1.41,0.38,1.41,1.89v6.73h-0.04l-7.19-8.96
			h-2.95v0.34c1.37,0.12,1.71,0.84,1.71,2.13v6.73c0,1.67-0.46,1.97-1.43,1.97v0.34h3.5v-0.34c-1.05,0-1.51-0.42-1.51-1.59v-8.08
			h0.04l8.12,10.01h0.34V38.82"/>
		<path class="st1" d="M90.06,34.86h1.71c2.53,0,3.35,1.98,3.35,3.45c0,1.88-1.3,2.99-3.35,2.99c-0.72,0-1.08-0.02-1.71-0.24V34.86
			 M90.06,41.69c1.01,0.12,1.52,0.15,2.12,0.15c3.14,0,4.87-1.28,4.87-3.57c0-1.9-1.54-3.93-5.35-3.93h-5.04v0.41
			c1.16,0,1.57,0.51,1.57,2.19v8.66c0,1.83-0.6,2.15-1.57,2.15v0.41h4.97v-0.41c-1.16,0-1.57-0.48-1.57-2.19V41.69z"/>
		<path class="st1" d="M103.38,42.82h-3.24l1.61-4.88h0.04L103.38,42.82 M104.69,46.72c0.26,0.78-0.12,1.13-0.9,1.13v0.34h4.06
			v-0.34c-1.03,0-1.31-0.32-1.65-1.39l-3.34-9.91h-1.19l-3.18,9.49c-0.36,1.07-0.62,1.65-1.71,1.81v0.34h2.97v-0.34
			c-1.21-0.02-1.01-0.88-0.62-2.01l0.78-2.31h3.72L104.69,46.72z"/>
		<path class="st2" d="M119.02,39.94v-3.44h-0.32c-0.12,0.24-0.32,0.36-0.62,0.36c-0.68,0-1.77-0.48-3.22-0.48
			c-3.44,0-5.95,2.69-5.95,6.35c0,3.84,2.89,5.73,5.67,5.73c2.21,0,4.04-1.15,4.8-2.97l-0.3-0.28c-0.86,1.69-2.21,2.53-4.02,2.53
			c-2.59,0-4.38-2.27-4.38-5.73c0-2.95,1.49-5.18,4.26-5.18c1.99,0,3.18,0.94,3.74,3.11H119.02"/>
		<path class="st2" d="M124.22,38.84c0-1.39,0.34-1.83,1.31-1.83v-0.34h-4.14v0.34c0.98,0,1.31,0.38,1.31,1.83v7.17
			c0,1.47-0.36,1.83-1.31,1.83v0.34h4.14v-0.34c-0.96,0-1.31-0.42-1.31-1.83V38.84"/>
		<path class="st2" d="M130.41,42.62h3.03c0.8,0,1.21,0.48,1.25,1.31h0.32v-3.24h-0.32c-0.1,0.92-0.42,1.37-1.29,1.37h-2.99v-4.82
			h2.93c1.25,0,1.59,0.08,1.87,1.49h0.26v-2.05h-7.9v0.34c0.96,0,1.31,0.38,1.31,1.83v7.17c0,1.43-0.34,1.83-1.31,1.83v0.34h4.14
			v-0.34c-0.96,0-1.31-0.42-1.31-1.83V42.62"/>
		<path class="st2" d="M140.24,38.84c0-1.39,0.34-1.83,1.31-1.83v-0.34h-4.14v0.34c0.98,0,1.31,0.38,1.31,1.83v7.17
			c0,1.47-0.36,1.83-1.31,1.83v0.34h4.14v-0.34c-0.96,0-1.31-0.42-1.31-1.83V38.84"/>
		<path class="st2" d="M154.23,39.94v-3.44h-0.32c-0.12,0.24-0.32,0.36-0.62,0.36c-0.68,0-1.77-0.48-3.22-0.48
			c-3.44,0-5.95,2.69-5.95,6.35c0,3.84,2.89,5.73,5.67,5.73c2.21,0,4.04-1.15,4.8-2.97l-0.3-0.28c-0.86,1.69-2.21,2.53-4.02,2.53
			c-2.59,0-4.38-2.27-4.38-5.73c0-2.95,1.49-5.18,4.26-5.18c1.99,0,3.18,0.94,3.74,3.11H154.23"/>
	</g>
	<g>
		<polyline class="st2" points="43.28,61.52 43.9,61.52 45.8,55.41 45.11,55.41 43.6,60.41 43.58,60.41 42.07,55.41 41.4,55.41 
			43.28,61.52 		"/>
		<path class="st1" d="M47.22,61.52l0.58-1.91h2.19l0.58,1.91h0.71l-1.88-6.11h-1.01l-1.88,6.11H47.22 M48.85,55.88h0.09l0.88,3.15
			h-1.85L48.85,55.88z"/>
		<polyline class="st2" points="53.68,61.52 53.68,56.07 53.69,56.07 56.79,61.52 57.35,61.52 57.35,55.41 56.74,55.41 56.74,60.11 
			56.71,60.11 54.04,55.41 53.07,55.41 53.07,61.52 53.68,61.52 		"/>
		<path class="st2" d="M63.17,59.57c-0.19,0.74-0.55,1.46-1.49,1.46c-1.02,0-1.71-0.8-1.71-2.56c0-1.75,0.69-2.56,1.57-2.56
			c0.91,0,1.3,0.52,1.52,1.39l0.63-0.19c-0.27-1.12-0.93-1.78-2.06-1.78c-1.47,0-2.34,1.15-2.34,3.14c0,2.14,0.96,3.14,2.34,3.14
			c1.25,0,1.88-0.78,2.15-1.91L63.17,59.57"/>
		<path class="st1" d="M65.21,58.46c0,2.04,0.89,3.14,2.39,3.14c1.5,0,2.39-1.1,2.39-3.14c0-2.04-0.89-3.14-2.39-3.14
			C66.1,55.32,65.21,56.42,65.21,58.46 M65.89,58.46c0-1.73,0.63-2.56,1.71-2.56c1.07,0,1.71,0.83,1.71,2.56
			c0,1.73-0.63,2.56-1.71,2.56C66.52,61.02,65.89,60.2,65.89,58.46z"/>
		<path class="st2" d="M72.01,55.41v4.26c0,1.22,0.88,1.93,2.14,1.93c1.26,0,2.14-0.71,2.14-1.93v-4.26h-0.68v4.32
			c0,0.71-0.51,1.3-1.46,1.3c-0.96,0-1.46-0.59-1.46-1.3v-4.32H72.01"/>
		<polyline class="st2" points="79.92,61.52 80.54,61.52 82.44,55.41 81.75,55.41 80.24,60.41 80.22,60.41 78.71,55.41 78.04,55.41 
			79.92,61.52 		"/>
		<polyline class="st2" points="84.18,55.41 84.18,61.52 88.01,61.52 88.01,60.94 84.85,60.94 84.85,58.6 86.98,58.6 86.98,58.03 
			84.85,58.03 84.85,55.98 87.84,55.98 87.84,55.41 84.18,55.41 		"/>
		<path class="st1" d="M90.63,61.52v-2.78h1.43l1.24,2.78h0.74l-1.29-2.91c0.72-0.24,1.22-0.73,1.22-1.59
			c0-1.02-0.72-1.61-2.04-1.61h-1.96v6.11H90.63 M90.63,55.98h1.22c0.87,0,1.43,0.25,1.43,1.07c0,0.77-0.49,1.12-1.42,1.12h-1.23
			V55.98z"/>
	</g>
	<g>
		<defs>
			<path id="SVGID_1_" d="M0.04,64.61 M0.04,18.31v46.3h166.7v-46.3H0.04z"/>
		</defs>
		<clipPath id="SVGID_2_">
			<use xlink:href="#SVGID_1_"  style="overflow:visible;"/>
		</clipPath>
		<path class="st3" d="M0.04,28.62v28.56c0.07,1.06,0.36,1.97,1.22,2.83c1.02,1.04,2.05,1.29,3.49,1.29h21.26
			c1.44,0,2.48-0.26,3.5-1.29c0.85-0.86,1.15-1.77,1.22-2.83V28.62c0-3.2-4.84-10.26-15.36-10.26C4.77,18.36,0.04,25.41,0.04,28.62"
			/>
		<path class="st4" d="M17.49,54.5c0.59-1.06,1.38-2.02,2.54-2.94c1.02-0.82,2.04-1.33,3.08-1.67c0.96-0.32,1.93-0.49,3-0.49h4.69
			v1.46c-0.21,0.1-0.45,0.2-0.67,0.28c-0.94,0.35-2.55,0.32-3.35,0.32c-0.06,0.36-0.12,0.71-0.51,1.06
			c-0.41,0.36-0.99,0.71-1.71,0.82c-1.58,0.24-2.51,0.39-3.95,1.07c-0.85,0.4-1.65,0.85-2.41,1.49c-0.26,0.22-0.58,0.55-0.8,0.86
			c-0.26,0.36-0.42,0.79-0.6,1.07c-0.11,0.16-0.28,0.23-0.42,0.26C16.47,56.73,16.93,55.52,17.49,54.5"/>
		<path class="st4" d="M15.4,27.67c0.18,0,0.25-0.92,0.22-1.48c-0.02-0.24-0.03-0.93-0.02-1.22c0.01-0.49,0.33-2.75,0.44-3.36
			c1.61,0.16,2.64,1.65,2.6,2.96c-0.59,1.26-0.95,2.28-1.42,3.75c-0.62,1.95-0.79,3.09-1.1,5.11c-0.29,1.88-0.37,2.8-0.37,4.64
			c0,1.62,0.18,2.47,0.19,4.19c0.01,0.34-0.05,0.75-0.22,1.06c-0.09,0.18-0.19,0.31-0.32,0.4c-0.13-0.09-0.23-0.22-0.32-0.4
			c-0.17-0.31-0.23-0.72-0.22-1.06c0.01-1.72,0.18-2.58,0.19-4.19c0-1.84-0.08-2.76-0.37-4.64c-0.32-2.02-0.49-3.16-1.1-5.11
			c-0.47-1.46-0.83-2.49-1.42-3.75c-0.03-1.3,1-2.79,2.61-2.96c0.12,0.61,0.43,2.87,0.43,3.36c0.01,0.3-0.01,0.98-0.02,1.22
			C15.15,26.75,15.23,27.67,15.4,27.67"/>
		<path class="st4" d="M30.76,45.21c-0.58,0.46-1.11,0.77-1.77,1.01c-0.86,0.32-2.34,0.3-3.07,0.3c0.12,0.35,0.03,0.76-0.33,1.08
			c-0.38,0.34-1.06,0.54-1.71,0.64c-1.45,0.21-2.3,0.35-3.62,0.98c-0.78,0.36-1.51,0.78-2.21,1.37c-0.24,0.2-0.54,0.51-0.73,0.78
			c-0.24,0.33-0.38,0.73-0.55,0.98c-0.1,0.15-0.26,0.21-0.38,0.24c0.09-1.25,0.5-2.36,1.02-3.3c0.53-0.98,1.26-1.86,2.32-2.71
			c0.94-0.75,1.87-1.21,2.83-1.53c0.88-0.29,1.77-0.45,2.75-0.45h5.45V45.21"/>
		<path class="st4" d="M13.43,49.3c-0.54-0.98-1.26-1.86-2.33-2.71c-0.93-0.75-1.87-1.21-2.82-1.53c-0.88-0.29-1.77-0.45-2.76-0.45
			H0.06v0.59c0.58,0.46,1.11,0.77,1.77,1.02c0.86,0.32,2.34,0.3,3.07,0.3c-0.12,0.35-0.04,0.76,0.33,1.08
			c0.38,0.34,1.05,0.54,1.71,0.64c1.45,0.21,2.3,0.35,3.63,0.98c0.78,0.36,1.51,0.78,2.21,1.36c0.24,0.2,0.53,0.51,0.73,0.78
			c0.23,0.33,0.38,0.73,0.55,0.98c0.1,0.15,0.25,0.21,0.38,0.24C14.36,51.35,13.94,50.24,13.43,49.3"/>
		<path class="st4" d="M13.33,54.5c-0.58-1.06-1.38-2.02-2.54-2.94c-1.02-0.82-2.04-1.33-3.08-1.67c-0.96-0.32-1.93-0.49-3-0.49
			H0.03v1.46c0.21,0.1,0.45,0.2,0.67,0.28c0.94,0.35,2.55,0.32,3.35,0.32c0.06,0.36,0.12,0.71,0.51,1.06
			c0.41,0.36,0.99,0.71,1.71,0.82c1.58,0.24,2.51,0.39,3.95,1.07c0.85,0.4,1.65,0.85,2.41,1.49c0.26,0.22,0.58,0.55,0.8,0.86
			c0.26,0.36,0.42,0.79,0.6,1.07c0.11,0.16,0.28,0.23,0.42,0.26C14.35,56.73,13.89,55.52,13.33,54.5"/>
		<path class="st4" d="M27.16,41.33c-0.75,0.28-2,0.29-2.62,0.29c0.25,0.36,0.15,0.85-0.15,1.17c-0.33,0.33-1.03,0.42-1.59,0.51
			c-1.24,0.21-1.97,0.35-3.1,0.95c-0.67,0.36-1.29,0.77-1.89,1.34c-0.21,0.19-0.46,0.49-0.63,0.76c-0.2,0.33-0.33,0.71-0.47,0.96
			c-0.09,0.14-0.22,0.2-0.32,0.24c0.07-1.23,0.43-2.31,0.87-3.23c0.46-0.95,1.08-1.81,1.99-2.64c0.8-0.72,1.6-1.18,2.41-1.48
			c0.76-0.29,1.52-0.44,2.36-0.44h5.46C29.23,40.26,28.03,41.01,27.16,41.33"/>
		<path class="st4" d="M3.66,41.33c0.75,0.28,2,0.29,2.63,0.29c-0.25,0.36-0.15,0.85,0.15,1.17c0.33,0.33,1.03,0.42,1.59,0.51
			c1.24,0.21,1.97,0.35,3.1,0.95c0.67,0.36,1.3,0.77,1.89,1.34c0.21,0.19,0.46,0.49,0.62,0.76c0.21,0.33,0.33,0.71,0.48,0.96
			c0.09,0.14,0.22,0.2,0.32,0.24c-0.07-1.23-0.43-2.31-0.87-3.23c-0.46-0.95-1.08-1.81-1.99-2.64c-0.8-0.72-1.6-1.18-2.42-1.48
			c-0.76-0.29-1.52-0.44-2.36-0.44H1.36C1.6,40.26,2.8,41.01,3.66,41.33"/>
		<path class="st4" d="M14.47,37.66c-0.03-0.64-0.07-1.27-0.15-1.94c-0.09-0.81-0.23-1.68-0.44-2.66c-0.22-0.99-0.46-2-0.74-2.96
			c-0.2-0.69-0.42-1.35-0.67-1.96c-0.48-1.21-0.97-2.12-1.41-2.75c-0.2-0.07-0.69-0.16-1.2-0.11c-0.45,0.05-0.91,0.16-1.27,0.36
			c0.26,0.29,0.5,0.57,0.74,0.85c0.29,0.36,0.55,0.68,0.69,0.87c0.18,0.25,0.6,0.87,0.86,1.28c0.7,1.1,1.14,2.53,1.27,2.82
			c-0.42-0.8-1.09-2.05-1.58-2.67c-0.02-0.03-0.1-0.13-0.14-0.17c-1.25-1.52-2.4-2.46-2.4-2.46s-0.54,0.51-0.68,1.36
			c-0.08,0.48-0.09,1.04,0.05,1.5c0.6,0.53,1.28,1.15,2.1,2.04c0.91,1,1.87,2.19,2.55,3.31c0.35,0.6,0.67,1.21,0.93,1.8
			c0.19,0.44,0.36,0.85,0.49,1.24c0.1,0.32,0.2,0.76,0.26,1.23c0.03,0.26,0.05,0.63,0.04,0.88c-0.02,0.36-0.07,0.82-0.04,1.16
			c0.03,0.44,0.3,0.76,0.61,0.91c0.05-0.72,0.1-1.35,0.13-2.01C14.5,38.92,14.5,38.24,14.47,37.66"/>
		<path class="st4" d="M16.33,37.66c0.03-0.64,0.07-1.27,0.15-1.94c0.09-0.81,0.23-1.68,0.44-2.66c0.22-0.99,0.46-2,0.74-2.96
			c0.2-0.69,0.42-1.35,0.67-1.96c0.48-1.21,0.97-2.12,1.41-2.75c0.2-0.07,0.69-0.16,1.2-0.11c0.44,0.05,0.91,0.16,1.27,0.36
			c-0.26,0.29-0.5,0.57-0.74,0.85c-0.29,0.36-0.55,0.68-0.69,0.87c-0.18,0.25-0.6,0.87-0.86,1.28c-0.7,1.1-1.14,2.53-1.27,2.82
			c0.42-0.8,1.09-2.05,1.59-2.67c0.02-0.03,0.1-0.13,0.14-0.17c1.25-1.52,2.4-2.46,2.4-2.46s0.54,0.51,0.68,1.36
			c0.08,0.48,0.09,1.04-0.06,1.5c-0.6,0.53-1.28,1.15-2.1,2.04c-0.91,1-1.87,2.19-2.55,3.31c-0.35,0.6-0.67,1.21-0.93,1.8
			c-0.19,0.44-0.36,0.85-0.49,1.24c-0.1,0.32-0.2,0.76-0.27,1.23c-0.03,0.26-0.05,0.63-0.04,0.88c0.02,0.36,0.07,0.82,0.04,1.16
			c-0.03,0.44-0.3,0.76-0.61,0.91c-0.05-0.72-0.1-1.35-0.13-2.01C16.3,38.92,16.3,38.24,16.33,37.66"/>
		<path class="st4" d="M13.33,39.24C13.33,39.24,13.33,39.24,13.33,39.24c-0.06-0.42-0.21-1.11-0.47-1.75
			c-0.22-0.56-0.54-1.24-0.92-1.9c-0.54-0.91-1.09-1.66-1.57-2.21c-0.46-0.53-1.11-1.2-1.7-1.67c-0.58-0.46-1.15-0.83-1.49-1.06
			c-0.41,0.03-0.77,0.14-1.1,0.32c-0.38,0.2-0.69,0.61-0.84,0.93c0.69,0.19,1.44,0.45,2.25,0.91c0.91,0.52,2.33,1.59,2.85,2.04
			c-1.27-0.86-1.96-1.16-2.97-1.62c-0.82-0.43-2.32-0.75-2.32-0.75c-0.08,0.21-0.01,0.95,0.11,1.36c0.14,0.47,0.35,0.82,0.56,0.96
			c0.61,0.09,1.29,0.21,2.01,0.37c0.73,0.17,1.54,0.41,2.01,0.61c1.16,0.5,1.78,1.15,2.23,1.92c0.18,0.32,0.46,0.88,0.54,1.06
			c0,0,0.65,1.44,0.83,0.98C13.35,39.74,13.39,39.59,13.33,39.24"/>
		<path class="st4" d="M17.49,39.24L17.49,39.24c0.06-0.42,0.21-1.11,0.46-1.75c0.22-0.56,0.54-1.24,0.92-1.9
			c0.54-0.91,1.1-1.66,1.58-2.21c0.46-0.53,1.1-1.2,1.7-1.67c0.58-0.46,1.16-0.83,1.5-1.06c0.41,0.03,0.77,0.14,1.1,0.32
			c0.38,0.2,0.69,0.61,0.84,0.93c-0.69,0.19-1.44,0.45-2.25,0.91c-0.91,0.52-2.33,1.59-2.85,2.04c1.27-0.86,1.96-1.16,2.97-1.62
			c0.81-0.43,2.32-0.75,2.32-0.75c0.08,0.21,0.01,0.95-0.11,1.36c-0.14,0.47-0.34,0.82-0.57,0.96c-0.61,0.09-1.29,0.21-2.01,0.37
			c-0.73,0.17-1.54,0.41-2.01,0.61c-1.16,0.5-1.79,1.15-2.23,1.92c-0.18,0.32-0.46,0.88-0.54,1.06c0,0-0.65,1.44-0.83,0.98
			C17.48,39.74,17.43,39.59,17.49,39.24"/>
	</g>
</g>
<g id="guides">
</g>
</svg>
